# xmcd
#
# Track frame offsets: 
#        150
#        25851
#        43539
#        60098
#        81072
#        105884
#        137708
#        154163
#        179165
#        201831
#        218921
#        231742
#        258583
#        285077
#
# Disc length: 4073 seconds
#
# Revision: 0
# Processed by: cddbd v1.5.2PL0 Copyright (c) Steve Scherf et al.
# Submitted via: ExactAudioCopy v1.0b3
#
DISCID=be0fe70e
DTITLE=Various Artist - Desert Blues 3
DYEAR=2008
DGENRE=Ethnic
TTITLE0=Djelimady Tounkara - 01 - Fanta Bourama - Djelimady Tounkara -
TTITLE0=Desert Blues 3
TTITLE1=Idrissa Soumaoro - 02 - M'Ba Den Ou - Idrissa Soumaoro - Deser
TTITLE1=t Blues 3
TTITLE2=Souad Massi - 03 - Raoui - Souad Massi - Desert Blues 3
TTITLE3=Khaled - 04 - Wahrane, Wahrane - Khaled - Desert Blues 3
TTITLE4=Tiris - 05 - El Nabi - Tiris - Desert Blues 3
TTITLE5=Regis Gizavo - 06 - Kanou - Regis Gizavo - Desert Blues 3
TTITLE6=Markus James - 07 - Dream After Dream - Markus James - Desert 
TTITLE6=Blues 3
TTITLE7=Bako Dagnon - 08 - Lassidan - Bako Dagnon - Desert Blues 3
TTITLE8=Fula Flute - 09 - Keme Bourema - Fula Flute - Desert Blues 3
TTITLE9=Gigi - 10 - Bati Bati - Gigi - Desert Blues 3
TTITLE10=Cherif Mbaw - 11 - Baayo - Cherif Mbaw - Desert Blues 3
TTITLE11=Abdoulaye Alhassante Toure - 12 - Humaisa - Abdoulaye Alhassa
TTITLE11=nte Toure - Desert Blues 3
TTITLE12=Rokia Traore - 13 - Bownboi - Rokia Traore - Desert Blues 3
TTITLE13=Toumani Diabate - 14 - Ai Ga Bani - Toumani Diabate - Desert 
TTITLE13=Blues 3
EXTD=
EXTT0=
EXTT1=
EXTT2=
EXTT3=
EXTT4=
EXTT5=
EXTT6=
EXTT7=
EXTT8=
EXTT9=
EXTT10=
EXTT11=
EXTT12=
EXTT13=
PLAYORDER=
